<?xml version="1.0" standalone="no"?>
<!DOCTYPE svg PUBLIC "-//W3C//DTD SVG 20010904//EN"
 "http://www.w3.org/TR/2001/REC-SVG-20010904/DTD/svg10.dtd">
<svg version="1.0" xmlns="http://www.w3.org/2000/svg"
 width="1024.000000pt" height="1024.000000pt" viewBox="0 0 1024.000000 1024.000000"
 preserveAspectRatio="xMidYMid meet">
<metadata>
Created by potrace 1.11, written by Peter Selinger 2001-2013
</metadata>
<g transform="translate(0.000000,1024.000000) scale(0.100000,-0.100000)"
fill="#000000" stroke="none">
<path d="M4987 9384 c-1 -1 -67 -5 -147 -9 -79 -4 -154 -9 -165 -11 -11 -2
-40 -6 -65 -9 -76 -8 -144 -17 -165 -22 -11 -2 -56 -10 -100 -18 -233 -42
-564 -134 -741 -206 -16 -6 -38 -15 -49 -19 -780 -312 -1440 -832 -1927 -1520
-66 -93 -143 -214 -223 -350 -119 -204 -317 -666 -370 -865 -7 -27 -27 -104
-45 -170 -18 -66 -34 -129 -36 -140 -2 -11 -10 -54 -19 -95 -8 -41 -17 -88
-20 -105 -6 -32 -34 -237 -40 -295 -26 -227 -25 -1068 0 -1285 3 -22 7 -58 10
-80 2 -22 7 -65 11 -95 3 -30 8 -58 10 -61 1 -3 6 -28 9 -55 23 -176 130 -574
215 -796 21 -55 24 -61 59 -140 12 -26 21 -50 21 -54 0 -12 164 -339 172 -342
4 -2 8 -8 8 -13 0 -25 172 -298 284 -449 61 -84 172 -225 201 -256 5 -6 38
-42 72 -80 105 -118 296 -306 378 -373 17 -14 55 -46 85 -71 386 -328 948
-631 1455 -785 191 -58 497 -127 625 -141 14 -1 57 -7 95 -13 39 -5 106 -12
150 -16 44 -3 105 -8 135 -10 67 -6 461 -6 510 -1 19 2 71 7 115 10 342 28
736 114 1063 232 70 25 141 52 157 59 17 7 64 28 105 45 240 102 634 327 810
462 291 224 426 345 639 574 75 80 259 307 319 392 223 321 380 610 510 942
31 78 110 311 116 339 2 9 6 23 9 31 6 14 52 201 61 245 20 95 35 176 40 205
3 19 8 44 10 55 5 26 16 108 22 165 3 25 7 61 9 80 26 238 26 1120 0 1290 -2
14 -9 63 -15 110 -26 196 -68 408 -112 565 -17 60 -31 114 -33 120 -1 5 -5 17
-8 25 -3 8 -20 58 -37 110 -248 754 -751 1466 -1400 1980 -100 79 -431 310
-445 310 -2 0 -39 20 -81 45 -116 69 -422 217 -524 255 -19 7 -48 18 -65 25
-100 43 -482 158 -598 181 -12 2 -44 8 -72 14 -27 5 -63 12 -80 15 -16 3 -41
7 -55 10 -14 3 -36 7 -50 9 -22 4 -45 7 -150 20 -149 19 -288 28 -483 30 -92
2 -168 2 -170 0z"/>
</g>
</svg>
